<mxfile host="www.draw.io" modified="2020-03-09T23:08:20.447Z" agent="Mozilla/5.0 (Windows NT 10.0; Win64; x64) AppleWebKit/537.36 (KHTML, like Gecko) Chrome/80.0.3987.132 Safari/537.36" etag="_SxitYcmbzab0XEQKuZI" version="12.8.1" type="github" pages="5">
  <diagram id="C5RBs43oDa-KdzZeNtuy" name="Page-1">
    <mxGraphModel dx="454" dy="454" grid="1" gridSize="10" guides="1" tooltips="1" connect="1" arrows="1" fold="1" page="1" pageScale="1" pageWidth="827" pageHeight="1169" math="0" shadow="0">
      <root>
        <mxCell id="WIyWlLk6GJQsqaUBKTNV-0" />
        <mxCell id="WIyWlLk6GJQsqaUBKTNV-1" parent="WIyWlLk6GJQsqaUBKTNV-0" />
        <mxCell id="zkfFHV4jXpPFQw0GAbJ--0" value="Person" style="swimlane;fontStyle=2;align=center;verticalAlign=top;childLayout=stackLayout;horizontal=1;startSize=26;horizontalStack=0;resizeParent=1;resizeLast=0;collapsible=1;marginBottom=0;rounded=0;shadow=0;strokeWidth=1;" parent="WIyWlLk6GJQsqaUBKTNV-1" vertex="1">
          <mxGeometry x="220" y="120" width="160" height="138" as="geometry">
            <mxRectangle x="230" y="140" width="160" height="26" as="alternateBounds" />
          </mxGeometry>
        </mxCell>
        <mxCell id="zkfFHV4jXpPFQw0GAbJ--1" value="Name" style="text;align=left;verticalAlign=top;spacingLeft=4;spacingRight=4;overflow=hidden;rotatable=0;points=[[0,0.5],[1,0.5]];portConstraint=eastwest;" parent="zkfFHV4jXpPFQw0GAbJ--0" vertex="1">
          <mxGeometry y="26" width="160" height="26" as="geometry" />
        </mxCell>
        <mxCell id="zkfFHV4jXpPFQw0GAbJ--2" value="Phone Number" style="text;align=left;verticalAlign=top;spacingLeft=4;spacingRight=4;overflow=hidden;rotatable=0;points=[[0,0.5],[1,0.5]];portConstraint=eastwest;rounded=0;shadow=0;html=0;" parent="zkfFHV4jXpPFQw0GAbJ--0" vertex="1">
          <mxGeometry y="52" width="160" height="26" as="geometry" />
        </mxCell>
        <mxCell id="zkfFHV4jXpPFQw0GAbJ--3" value="Email Address" style="text;align=left;verticalAlign=top;spacingLeft=4;spacingRight=4;overflow=hidden;rotatable=0;points=[[0,0.5],[1,0.5]];portConstraint=eastwest;rounded=0;shadow=0;html=0;" parent="zkfFHV4jXpPFQw0GAbJ--0" vertex="1">
          <mxGeometry y="78" width="160" height="26" as="geometry" />
        </mxCell>
        <mxCell id="zkfFHV4jXpPFQw0GAbJ--4" value="" style="line;html=1;strokeWidth=1;align=left;verticalAlign=middle;spacingTop=-1;spacingLeft=3;spacingRight=3;rotatable=0;labelPosition=right;points=[];portConstraint=eastwest;" parent="zkfFHV4jXpPFQw0GAbJ--0" vertex="1">
          <mxGeometry y="104" width="160" height="8" as="geometry" />
        </mxCell>
        <mxCell id="zkfFHV4jXpPFQw0GAbJ--5" value="Purchase Parking Pass" style="text;align=left;verticalAlign=top;spacingLeft=4;spacingRight=4;overflow=hidden;rotatable=0;points=[[0,0.5],[1,0.5]];portConstraint=eastwest;" parent="zkfFHV4jXpPFQw0GAbJ--0" vertex="1">
          <mxGeometry y="112" width="160" height="26" as="geometry" />
        </mxCell>
        <mxCell id="zkfFHV4jXpPFQw0GAbJ--6" value="Student" style="swimlane;fontStyle=0;align=center;verticalAlign=top;childLayout=stackLayout;horizontal=1;startSize=26;horizontalStack=0;resizeParent=1;resizeLast=0;collapsible=1;marginBottom=0;rounded=0;shadow=0;strokeWidth=1;" parent="WIyWlLk6GJQsqaUBKTNV-1" vertex="1">
          <mxGeometry x="120" y="360" width="160" height="138" as="geometry">
            <mxRectangle x="130" y="380" width="160" height="26" as="alternateBounds" />
          </mxGeometry>
        </mxCell>
        <mxCell id="zkfFHV4jXpPFQw0GAbJ--7" value="Student Number" style="text;align=left;verticalAlign=top;spacingLeft=4;spacingRight=4;overflow=hidden;rotatable=0;points=[[0,0.5],[1,0.5]];portConstraint=eastwest;" parent="zkfFHV4jXpPFQw0GAbJ--6" vertex="1">
          <mxGeometry y="26" width="160" height="26" as="geometry" />
        </mxCell>
        <mxCell id="zkfFHV4jXpPFQw0GAbJ--8" value="Average Mark" style="text;align=left;verticalAlign=top;spacingLeft=4;spacingRight=4;overflow=hidden;rotatable=0;points=[[0,0.5],[1,0.5]];portConstraint=eastwest;rounded=0;shadow=0;html=0;" parent="zkfFHV4jXpPFQw0GAbJ--6" vertex="1">
          <mxGeometry y="52" width="160" height="26" as="geometry" />
        </mxCell>
        <mxCell id="zkfFHV4jXpPFQw0GAbJ--9" value="" style="line;html=1;strokeWidth=1;align=left;verticalAlign=middle;spacingTop=-1;spacingLeft=3;spacingRight=3;rotatable=0;labelPosition=right;points=[];portConstraint=eastwest;" parent="zkfFHV4jXpPFQw0GAbJ--6" vertex="1">
          <mxGeometry y="78" width="160" height="8" as="geometry" />
        </mxCell>
        <mxCell id="zkfFHV4jXpPFQw0GAbJ--10" value="Is Eligibale To Enroll" style="text;align=left;verticalAlign=top;spacingLeft=4;spacingRight=4;overflow=hidden;rotatable=0;points=[[0,0.5],[1,0.5]];portConstraint=eastwest;fontStyle=4" parent="zkfFHV4jXpPFQw0GAbJ--6" vertex="1">
          <mxGeometry y="86" width="160" height="26" as="geometry" />
        </mxCell>
        <mxCell id="zkfFHV4jXpPFQw0GAbJ--11" value="Get Seminars Taken" style="text;align=left;verticalAlign=top;spacingLeft=4;spacingRight=4;overflow=hidden;rotatable=0;points=[[0,0.5],[1,0.5]];portConstraint=eastwest;" parent="zkfFHV4jXpPFQw0GAbJ--6" vertex="1">
          <mxGeometry y="112" width="160" height="26" as="geometry" />
        </mxCell>
        <mxCell id="zkfFHV4jXpPFQw0GAbJ--12" value="" style="endArrow=block;endSize=10;endFill=0;shadow=0;strokeWidth=1;rounded=0;edgeStyle=elbowEdgeStyle;elbow=vertical;" parent="WIyWlLk6GJQsqaUBKTNV-1" source="zkfFHV4jXpPFQw0GAbJ--6" target="zkfFHV4jXpPFQw0GAbJ--0" edge="1">
          <mxGeometry width="160" relative="1" as="geometry">
            <mxPoint x="200" y="203" as="sourcePoint" />
            <mxPoint x="200" y="203" as="targetPoint" />
          </mxGeometry>
        </mxCell>
        <mxCell id="zkfFHV4jXpPFQw0GAbJ--13" value="Professor" style="swimlane;fontStyle=0;align=center;verticalAlign=top;childLayout=stackLayout;horizontal=1;startSize=26;horizontalStack=0;resizeParent=1;resizeLast=0;collapsible=1;marginBottom=0;rounded=0;shadow=0;strokeWidth=1;" parent="WIyWlLk6GJQsqaUBKTNV-1" vertex="1">
          <mxGeometry x="330" y="360" width="160" height="70" as="geometry">
            <mxRectangle x="340" y="380" width="170" height="26" as="alternateBounds" />
          </mxGeometry>
        </mxCell>
        <mxCell id="zkfFHV4jXpPFQw0GAbJ--14" value="Salary" style="text;align=left;verticalAlign=top;spacingLeft=4;spacingRight=4;overflow=hidden;rotatable=0;points=[[0,0.5],[1,0.5]];portConstraint=eastwest;" parent="zkfFHV4jXpPFQw0GAbJ--13" vertex="1">
          <mxGeometry y="26" width="160" height="26" as="geometry" />
        </mxCell>
        <mxCell id="zkfFHV4jXpPFQw0GAbJ--15" value="" style="line;html=1;strokeWidth=1;align=left;verticalAlign=middle;spacingTop=-1;spacingLeft=3;spacingRight=3;rotatable=0;labelPosition=right;points=[];portConstraint=eastwest;" parent="zkfFHV4jXpPFQw0GAbJ--13" vertex="1">
          <mxGeometry y="52" width="160" height="8" as="geometry" />
        </mxCell>
        <mxCell id="zkfFHV4jXpPFQw0GAbJ--16" value="" style="endArrow=block;endSize=10;endFill=0;shadow=0;strokeWidth=1;rounded=0;edgeStyle=elbowEdgeStyle;elbow=vertical;" parent="WIyWlLk6GJQsqaUBKTNV-1" source="zkfFHV4jXpPFQw0GAbJ--13" target="zkfFHV4jXpPFQw0GAbJ--0" edge="1">
          <mxGeometry width="160" relative="1" as="geometry">
            <mxPoint x="210" y="373" as="sourcePoint" />
            <mxPoint x="310" y="271" as="targetPoint" />
          </mxGeometry>
        </mxCell>
        <mxCell id="zkfFHV4jXpPFQw0GAbJ--17" value="Address" style="swimlane;fontStyle=0;align=center;verticalAlign=top;childLayout=stackLayout;horizontal=1;startSize=26;horizontalStack=0;resizeParent=1;resizeLast=0;collapsible=1;marginBottom=0;rounded=0;shadow=0;strokeWidth=1;" parent="WIyWlLk6GJQsqaUBKTNV-1" vertex="1">
          <mxGeometry x="508" y="120" width="160" height="216" as="geometry">
            <mxRectangle x="550" y="140" width="160" height="26" as="alternateBounds" />
          </mxGeometry>
        </mxCell>
        <mxCell id="zkfFHV4jXpPFQw0GAbJ--18" value="Street" style="text;align=left;verticalAlign=top;spacingLeft=4;spacingRight=4;overflow=hidden;rotatable=0;points=[[0,0.5],[1,0.5]];portConstraint=eastwest;" parent="zkfFHV4jXpPFQw0GAbJ--17" vertex="1">
          <mxGeometry y="26" width="160" height="26" as="geometry" />
        </mxCell>
        <mxCell id="zkfFHV4jXpPFQw0GAbJ--19" value="City" style="text;align=left;verticalAlign=top;spacingLeft=4;spacingRight=4;overflow=hidden;rotatable=0;points=[[0,0.5],[1,0.5]];portConstraint=eastwest;rounded=0;shadow=0;html=0;" parent="zkfFHV4jXpPFQw0GAbJ--17" vertex="1">
          <mxGeometry y="52" width="160" height="26" as="geometry" />
        </mxCell>
        <mxCell id="zkfFHV4jXpPFQw0GAbJ--20" value="State" style="text;align=left;verticalAlign=top;spacingLeft=4;spacingRight=4;overflow=hidden;rotatable=0;points=[[0,0.5],[1,0.5]];portConstraint=eastwest;rounded=0;shadow=0;html=0;" parent="zkfFHV4jXpPFQw0GAbJ--17" vertex="1">
          <mxGeometry y="78" width="160" height="26" as="geometry" />
        </mxCell>
        <mxCell id="zkfFHV4jXpPFQw0GAbJ--21" value="Postal Code" style="text;align=left;verticalAlign=top;spacingLeft=4;spacingRight=4;overflow=hidden;rotatable=0;points=[[0,0.5],[1,0.5]];portConstraint=eastwest;rounded=0;shadow=0;html=0;" parent="zkfFHV4jXpPFQw0GAbJ--17" vertex="1">
          <mxGeometry y="104" width="160" height="26" as="geometry" />
        </mxCell>
        <mxCell id="zkfFHV4jXpPFQw0GAbJ--22" value="Country" style="text;align=left;verticalAlign=top;spacingLeft=4;spacingRight=4;overflow=hidden;rotatable=0;points=[[0,0.5],[1,0.5]];portConstraint=eastwest;rounded=0;shadow=0;html=0;" parent="zkfFHV4jXpPFQw0GAbJ--17" vertex="1">
          <mxGeometry y="130" width="160" height="26" as="geometry" />
        </mxCell>
        <mxCell id="zkfFHV4jXpPFQw0GAbJ--23" value="" style="line;html=1;strokeWidth=1;align=left;verticalAlign=middle;spacingTop=-1;spacingLeft=3;spacingRight=3;rotatable=0;labelPosition=right;points=[];portConstraint=eastwest;" parent="zkfFHV4jXpPFQw0GAbJ--17" vertex="1">
          <mxGeometry y="156" width="160" height="8" as="geometry" />
        </mxCell>
        <mxCell id="zkfFHV4jXpPFQw0GAbJ--24" value="Validate" style="text;align=left;verticalAlign=top;spacingLeft=4;spacingRight=4;overflow=hidden;rotatable=0;points=[[0,0.5],[1,0.5]];portConstraint=eastwest;" parent="zkfFHV4jXpPFQw0GAbJ--17" vertex="1">
          <mxGeometry y="164" width="160" height="26" as="geometry" />
        </mxCell>
        <mxCell id="zkfFHV4jXpPFQw0GAbJ--25" value="Output As Label" style="text;align=left;verticalAlign=top;spacingLeft=4;spacingRight=4;overflow=hidden;rotatable=0;points=[[0,0.5],[1,0.5]];portConstraint=eastwest;" parent="zkfFHV4jXpPFQw0GAbJ--17" vertex="1">
          <mxGeometry y="190" width="160" height="26" as="geometry" />
        </mxCell>
        <mxCell id="zkfFHV4jXpPFQw0GAbJ--26" value="" style="endArrow=open;shadow=0;strokeWidth=1;strokeColor=#000000;rounded=0;endFill=1;edgeStyle=elbowEdgeStyle;elbow=vertical;" parent="WIyWlLk6GJQsqaUBKTNV-1" source="zkfFHV4jXpPFQw0GAbJ--0" target="zkfFHV4jXpPFQw0GAbJ--17" edge="1">
          <mxGeometry x="0.5" y="41" relative="1" as="geometry">
            <mxPoint x="380" y="192" as="sourcePoint" />
            <mxPoint x="540" y="192" as="targetPoint" />
            <mxPoint x="-40" y="32" as="offset" />
          </mxGeometry>
        </mxCell>
        <mxCell id="zkfFHV4jXpPFQw0GAbJ--27" value="0..1" style="resizable=0;align=left;verticalAlign=bottom;labelBackgroundColor=none;fontSize=12;" parent="zkfFHV4jXpPFQw0GAbJ--26" connectable="0" vertex="1">
          <mxGeometry x="-1" relative="1" as="geometry">
            <mxPoint y="4" as="offset" />
          </mxGeometry>
        </mxCell>
        <mxCell id="zkfFHV4jXpPFQw0GAbJ--28" value="1" style="resizable=0;align=right;verticalAlign=bottom;labelBackgroundColor=none;fontSize=12;" parent="zkfFHV4jXpPFQw0GAbJ--26" connectable="0" vertex="1">
          <mxGeometry x="1" relative="1" as="geometry">
            <mxPoint x="-7" y="4" as="offset" />
          </mxGeometry>
        </mxCell>
        <mxCell id="zkfFHV4jXpPFQw0GAbJ--29" value="lives at" style="text;html=1;resizable=0;points=[];;align=center;verticalAlign=middle;labelBackgroundColor=none;rounded=0;shadow=0;strokeWidth=1;fontSize=12;" parent="zkfFHV4jXpPFQw0GAbJ--26" vertex="1" connectable="0">
          <mxGeometry x="0.5" y="49" relative="1" as="geometry">
            <mxPoint x="-38" y="40" as="offset" />
          </mxGeometry>
        </mxCell>
      </root>
    </mxGraphModel>
  </diagram>
  <diagram id="-ZrdJsE1eJlWfXO2FE1A" name="Page-2">
    <mxGraphModel dx="534" dy="534" grid="1" gridSize="811" guides="1" tooltips="1" connect="1" arrows="1" fold="1" page="1" pageScale="1" pageWidth="850" pageHeight="1100" math="0" shadow="0">
      <root>
        <mxCell id="UAjvqrSmE-DBPClSDNn2-0" />
        <mxCell id="UAjvqrSmE-DBPClSDNn2-1" parent="UAjvqrSmE-DBPClSDNn2-0" />
        <mxCell id="UAjvqrSmE-DBPClSDNn2-2" value="Pharmacy&#xa;managment&#xa;system" style="shape=module;align=left;spacingLeft=20;align=center;verticalAlign=top;" vertex="1" parent="UAjvqrSmE-DBPClSDNn2-1">
          <mxGeometry x="30" y="170" width="100" height="50" as="geometry" />
        </mxCell>
        <mxCell id="UAjvqrSmE-DBPClSDNn2-3" value="Pharmacy" style="shape=module;align=left;spacingLeft=20;align=center;verticalAlign=top;" vertex="1" parent="UAjvqrSmE-DBPClSDNn2-1">
          <mxGeometry x="250" y="10" width="100" height="50" as="geometry" />
        </mxCell>
        <mxCell id="UAjvqrSmE-DBPClSDNn2-4" value="Medicine" style="shape=module;align=left;spacingLeft=20;align=center;verticalAlign=top;" vertex="1" parent="UAjvqrSmE-DBPClSDNn2-1">
          <mxGeometry x="250" y="90" width="100" height="50" as="geometry" />
        </mxCell>
        <mxCell id="UAjvqrSmE-DBPClSDNn2-5" value="Stock" style="shape=module;align=left;spacingLeft=20;align=center;verticalAlign=top;" vertex="1" parent="UAjvqrSmE-DBPClSDNn2-1">
          <mxGeometry x="250" y="170" width="100" height="50" as="geometry" />
        </mxCell>
        <mxCell id="UAjvqrSmE-DBPClSDNn2-6" value="Company" style="shape=module;align=left;spacingLeft=20;align=center;verticalAlign=top;" vertex="1" parent="UAjvqrSmE-DBPClSDNn2-1">
          <mxGeometry x="250" y="270" width="100" height="50" as="geometry" />
        </mxCell>
        <mxCell id="UAjvqrSmE-DBPClSDNn2-7" value="Inventory" style="shape=module;align=left;spacingLeft=20;align=center;verticalAlign=top;" vertex="1" parent="UAjvqrSmE-DBPClSDNn2-1">
          <mxGeometry x="250" y="360" width="100" height="50" as="geometry" />
        </mxCell>
        <mxCell id="UAjvqrSmE-DBPClSDNn2-9" value="" style="endArrow=block;dashed=1;endFill=0;endSize=12;html=1;" edge="1" parent="UAjvqrSmE-DBPClSDNn2-1">
          <mxGeometry width="160" relative="1" as="geometry">
            <mxPoint x="130" y="180" as="sourcePoint" />
            <mxPoint x="250" y="180" as="targetPoint" />
          </mxGeometry>
        </mxCell>
        <mxCell id="UAjvqrSmE-DBPClSDNn2-13" value="" style="endArrow=none;html=1;edgeStyle=orthogonalEdgeStyle;dashed=1;" edge="1" parent="UAjvqrSmE-DBPClSDNn2-1">
          <mxGeometry relative="1" as="geometry">
            <mxPoint x="160" y="370" as="sourcePoint" />
            <mxPoint x="160" y="20" as="targetPoint" />
            <Array as="points">
              <mxPoint x="160" y="240" />
              <mxPoint x="160" y="240" />
            </Array>
          </mxGeometry>
        </mxCell>
        <mxCell id="UAjvqrSmE-DBPClSDNn2-16" value="" style="endArrow=none;html=1;edgeStyle=orthogonalEdgeStyle;" edge="1" parent="UAjvqrSmE-DBPClSDNn2-1">
          <mxGeometry relative="1" as="geometry">
            <mxPoint x="440" y="390" as="sourcePoint" />
            <mxPoint x="440" y="20" as="targetPoint" />
            <Array as="points">
              <mxPoint x="440" y="230" />
              <mxPoint x="440" y="230" />
            </Array>
          </mxGeometry>
        </mxCell>
        <mxCell id="UAjvqrSmE-DBPClSDNn2-19" value="" style="endArrow=block;dashed=1;endFill=0;endSize=12;html=1;" edge="1" parent="UAjvqrSmE-DBPClSDNn2-1">
          <mxGeometry width="160" relative="1" as="geometry">
            <mxPoint x="160" y="280" as="sourcePoint" />
            <mxPoint x="250" y="280" as="targetPoint" />
          </mxGeometry>
        </mxCell>
        <mxCell id="UAjvqrSmE-DBPClSDNn2-20" value="" style="endArrow=block;dashed=1;endFill=0;endSize=12;html=1;" edge="1" parent="UAjvqrSmE-DBPClSDNn2-1">
          <mxGeometry width="160" relative="1" as="geometry">
            <mxPoint x="160" y="370" as="sourcePoint" />
            <mxPoint x="250" y="370" as="targetPoint" />
          </mxGeometry>
        </mxCell>
        <mxCell id="UAjvqrSmE-DBPClSDNn2-21" value="" style="endArrow=block;dashed=1;endFill=0;endSize=12;html=1;" edge="1" parent="UAjvqrSmE-DBPClSDNn2-1">
          <mxGeometry width="160" relative="1" as="geometry">
            <mxPoint x="160" y="100" as="sourcePoint" />
            <mxPoint x="250" y="100" as="targetPoint" />
          </mxGeometry>
        </mxCell>
        <mxCell id="UAjvqrSmE-DBPClSDNn2-22" value="" style="endArrow=block;dashed=1;endFill=0;endSize=12;html=1;" edge="1" parent="UAjvqrSmE-DBPClSDNn2-1">
          <mxGeometry width="160" relative="1" as="geometry">
            <mxPoint x="160" y="20" as="sourcePoint" />
            <mxPoint x="250" y="20" as="targetPoint" />
          </mxGeometry>
        </mxCell>
        <mxCell id="UAjvqrSmE-DBPClSDNn2-24" value="" style="ellipse;whiteSpace=wrap;html=1;aspect=fixed;" vertex="1" parent="UAjvqrSmE-DBPClSDNn2-1">
          <mxGeometry x="210" y="390" width="10" height="10" as="geometry" />
        </mxCell>
        <mxCell id="UAjvqrSmE-DBPClSDNn2-25" value="" style="endArrow=none;html=1;entryX=0;entryY=0;entryDx=0;entryDy=35;entryPerimeter=0;exitX=1;exitY=0.5;exitDx=0;exitDy=0;" edge="1" parent="UAjvqrSmE-DBPClSDNn2-1" source="UAjvqrSmE-DBPClSDNn2-24" target="UAjvqrSmE-DBPClSDNn2-7">
          <mxGeometry width="50" height="50" relative="1" as="geometry">
            <mxPoint x="220" y="400" as="sourcePoint" />
            <mxPoint x="270" y="350" as="targetPoint" />
          </mxGeometry>
        </mxCell>
        <mxCell id="UAjvqrSmE-DBPClSDNn2-28" value="" style="ellipse;whiteSpace=wrap;html=1;aspect=fixed;" vertex="1" parent="UAjvqrSmE-DBPClSDNn2-1">
          <mxGeometry x="210" y="300" width="10" height="10" as="geometry" />
        </mxCell>
        <mxCell id="UAjvqrSmE-DBPClSDNn2-29" value="" style="endArrow=none;html=1;entryX=0;entryY=0;entryDx=0;entryDy=35;entryPerimeter=0;" edge="1" parent="UAjvqrSmE-DBPClSDNn2-1" target="UAjvqrSmE-DBPClSDNn2-6">
          <mxGeometry width="50" height="50" relative="1" as="geometry">
            <mxPoint x="220" y="305" as="sourcePoint" />
            <mxPoint x="220" y="315" as="targetPoint" />
          </mxGeometry>
        </mxCell>
        <mxCell id="UAjvqrSmE-DBPClSDNn2-30" value="" style="ellipse;whiteSpace=wrap;html=1;aspect=fixed;" vertex="1" parent="UAjvqrSmE-DBPClSDNn2-1">
          <mxGeometry x="210" y="200" width="10" height="10" as="geometry" />
        </mxCell>
        <mxCell id="UAjvqrSmE-DBPClSDNn2-31" value="" style="endArrow=none;html=1;entryX=0;entryY=0;entryDx=0;entryDy=35;entryPerimeter=0;exitX=1;exitY=0.5;exitDx=0;exitDy=0;" edge="1" source="UAjvqrSmE-DBPClSDNn2-30" parent="UAjvqrSmE-DBPClSDNn2-1" target="UAjvqrSmE-DBPClSDNn2-5">
          <mxGeometry width="50" height="50" relative="1" as="geometry">
            <mxPoint x="220" y="220" as="sourcePoint" />
            <mxPoint x="250" y="215" as="targetPoint" />
          </mxGeometry>
        </mxCell>
        <mxCell id="UAjvqrSmE-DBPClSDNn2-32" value="" style="ellipse;whiteSpace=wrap;html=1;aspect=fixed;" vertex="1" parent="UAjvqrSmE-DBPClSDNn2-1">
          <mxGeometry x="210" y="120" width="10" height="10" as="geometry" />
        </mxCell>
        <mxCell id="UAjvqrSmE-DBPClSDNn2-33" value="" style="endArrow=none;html=1;entryX=0;entryY=0;entryDx=0;entryDy=35;entryPerimeter=0;exitX=1;exitY=0.5;exitDx=0;exitDy=0;" edge="1" source="UAjvqrSmE-DBPClSDNn2-32" parent="UAjvqrSmE-DBPClSDNn2-1">
          <mxGeometry width="50" height="50" relative="1" as="geometry">
            <mxPoint x="220" y="130" as="sourcePoint" />
            <mxPoint x="250" y="125" as="targetPoint" />
          </mxGeometry>
        </mxCell>
        <mxCell id="UAjvqrSmE-DBPClSDNn2-38" value="" style="ellipse;whiteSpace=wrap;html=1;aspect=fixed;" vertex="1" parent="UAjvqrSmE-DBPClSDNn2-1">
          <mxGeometry x="210" y="40" width="10" height="10" as="geometry" />
        </mxCell>
        <mxCell id="UAjvqrSmE-DBPClSDNn2-39" value="" style="endArrow=none;html=1;entryX=0;entryY=0;entryDx=0;entryDy=35;entryPerimeter=0;" edge="1" parent="UAjvqrSmE-DBPClSDNn2-1" target="UAjvqrSmE-DBPClSDNn2-3">
          <mxGeometry width="50" height="50" relative="1" as="geometry">
            <mxPoint x="220" y="45" as="sourcePoint" />
            <mxPoint x="220" y="55" as="targetPoint" />
          </mxGeometry>
        </mxCell>
        <mxCell id="UAjvqrSmE-DBPClSDNn2-41" value="" style="endArrow=none;html=1;exitX=0.5;exitY=0;exitDx=0;exitDy=0;entryX=0.33;entryY=1.06;entryDx=0;entryDy=0;entryPerimeter=0;" edge="1" source="UAjvqrSmE-DBPClSDNn2-42" parent="UAjvqrSmE-DBPClSDNn2-1" target="UAjvqrSmE-DBPClSDNn2-2">
          <mxGeometry width="50" height="50" relative="1" as="geometry">
            <mxPoint x="70" y="281" as="sourcePoint" />
            <mxPoint x="70" y="230" as="targetPoint" />
          </mxGeometry>
        </mxCell>
        <mxCell id="UAjvqrSmE-DBPClSDNn2-42" value="" style="ellipse;whiteSpace=wrap;html=1;aspect=fixed;" vertex="1" parent="UAjvqrSmE-DBPClSDNn2-1">
          <mxGeometry x="60" y="270" width="10" height="10" as="geometry" />
        </mxCell>
        <mxCell id="UAjvqrSmE-DBPClSDNn2-45" value="Data Access" style="text;html=1;align=center;verticalAlign=middle;resizable=0;points=[];autosize=1;" vertex="1" parent="UAjvqrSmE-DBPClSDNn2-1">
          <mxGeometry x="175" y="50" width="80" height="20" as="geometry" />
        </mxCell>
        <mxCell id="UAjvqrSmE-DBPClSDNn2-46" value="Data Access" style="text;html=1;align=center;verticalAlign=middle;resizable=0;points=[];autosize=1;" vertex="1" parent="UAjvqrSmE-DBPClSDNn2-1">
          <mxGeometry x="170" y="130" width="80" height="20" as="geometry" />
        </mxCell>
        <mxCell id="UAjvqrSmE-DBPClSDNn2-47" value="Data Access" style="text;html=1;align=center;verticalAlign=middle;resizable=0;points=[];autosize=1;" vertex="1" parent="UAjvqrSmE-DBPClSDNn2-1">
          <mxGeometry x="170" y="210" width="80" height="20" as="geometry" />
        </mxCell>
        <mxCell id="UAjvqrSmE-DBPClSDNn2-48" value="Data Access" style="text;html=1;align=center;verticalAlign=middle;resizable=0;points=[];autosize=1;" vertex="1" parent="UAjvqrSmE-DBPClSDNn2-1">
          <mxGeometry x="170" y="310" width="80" height="20" as="geometry" />
        </mxCell>
        <mxCell id="UAjvqrSmE-DBPClSDNn2-49" value="Data Access" style="text;html=1;align=center;verticalAlign=middle;resizable=0;points=[];autosize=1;" vertex="1" parent="UAjvqrSmE-DBPClSDNn2-1">
          <mxGeometry x="170" y="400" width="80" height="20" as="geometry" />
        </mxCell>
        <mxCell id="UAjvqrSmE-DBPClSDNn2-50" value="System Admin &lt;br&gt;of Pharmacy &lt;br&gt;Management System" style="text;html=1;align=center;verticalAlign=middle;resizable=0;points=[];autosize=1;" vertex="1" parent="UAjvqrSmE-DBPClSDNn2-1">
          <mxGeometry x="20" y="279" width="130" height="50" as="geometry" />
        </mxCell>
        <mxCell id="UAjvqrSmE-DBPClSDNn2-51" value="" style="endArrow=none;html=1;exitX=1;exitY=0.5;exitDx=0;exitDy=0;" edge="1" parent="UAjvqrSmE-DBPClSDNn2-1" source="UAjvqrSmE-DBPClSDNn2-7">
          <mxGeometry width="50" height="50" relative="1" as="geometry">
            <mxPoint x="360" y="390" as="sourcePoint" />
            <mxPoint x="440" y="385" as="targetPoint" />
          </mxGeometry>
        </mxCell>
        <mxCell id="UAjvqrSmE-DBPClSDNn2-52" value="" style="endArrow=none;html=1;exitX=1;exitY=0.5;exitDx=0;exitDy=0;" edge="1" parent="UAjvqrSmE-DBPClSDNn2-1">
          <mxGeometry width="50" height="50" relative="1" as="geometry">
            <mxPoint x="350" y="280" as="sourcePoint" />
            <mxPoint x="440" y="280" as="targetPoint" />
          </mxGeometry>
        </mxCell>
        <mxCell id="UAjvqrSmE-DBPClSDNn2-53" value="" style="endArrow=none;html=1;exitX=1;exitY=0.5;exitDx=0;exitDy=0;" edge="1" parent="UAjvqrSmE-DBPClSDNn2-1">
          <mxGeometry width="50" height="50" relative="1" as="geometry">
            <mxPoint x="350" y="180" as="sourcePoint" />
            <mxPoint x="440" y="180" as="targetPoint" />
          </mxGeometry>
        </mxCell>
        <mxCell id="UAjvqrSmE-DBPClSDNn2-54" value="" style="endArrow=none;html=1;exitX=1;exitY=0.5;exitDx=0;exitDy=0;" edge="1" parent="UAjvqrSmE-DBPClSDNn2-1">
          <mxGeometry width="50" height="50" relative="1" as="geometry">
            <mxPoint x="350" y="100" as="sourcePoint" />
            <mxPoint x="440" y="100" as="targetPoint" />
          </mxGeometry>
        </mxCell>
        <mxCell id="UAjvqrSmE-DBPClSDNn2-55" value="" style="endArrow=none;html=1;exitX=1;exitY=0.5;exitDx=0;exitDy=0;" edge="1" parent="UAjvqrSmE-DBPClSDNn2-1">
          <mxGeometry width="50" height="50" relative="1" as="geometry">
            <mxPoint x="350" y="20" as="sourcePoint" />
            <mxPoint x="440" y="20" as="targetPoint" />
          </mxGeometry>
        </mxCell>
        <mxCell id="UAjvqrSmE-DBPClSDNn2-59" value="" style="rounded=0;orthogonalLoop=1;jettySize=auto;html=1;endArrow=none;endFill=0;" edge="1" target="UAjvqrSmE-DBPClSDNn2-61" parent="UAjvqrSmE-DBPClSDNn2-1">
          <mxGeometry relative="1" as="geometry">
            <mxPoint x="440" y="85" as="sourcePoint" />
          </mxGeometry>
        </mxCell>
        <mxCell id="UAjvqrSmE-DBPClSDNn2-60" value="" style="rounded=0;orthogonalLoop=1;jettySize=auto;html=1;endArrow=halfCircle;endFill=0;entryX=0.5;entryY=0.5;entryDx=0;entryDy=0;endSize=6;strokeWidth=1;" edge="1" target="UAjvqrSmE-DBPClSDNn2-61" parent="UAjvqrSmE-DBPClSDNn2-1">
          <mxGeometry relative="1" as="geometry">
            <mxPoint x="510" y="85" as="sourcePoint" />
          </mxGeometry>
        </mxCell>
        <mxCell id="UAjvqrSmE-DBPClSDNn2-61" value="" style="ellipse;whiteSpace=wrap;html=1;fontFamily=Helvetica;fontSize=12;fontColor=#000000;align=center;strokeColor=#000000;fillColor=#ffffff;points=[];aspect=fixed;resizable=0;" vertex="1" parent="UAjvqrSmE-DBPClSDNn2-1">
          <mxGeometry x="475" y="80" width="10" height="10" as="geometry" />
        </mxCell>
        <mxCell id="UAjvqrSmE-DBPClSDNn2-71" value="" style="rounded=0;orthogonalLoop=1;jettySize=auto;html=1;endArrow=none;endFill=0;" edge="1" target="UAjvqrSmE-DBPClSDNn2-73" parent="UAjvqrSmE-DBPClSDNn2-1">
          <mxGeometry relative="1" as="geometry">
            <mxPoint x="440" y="205" as="sourcePoint" />
          </mxGeometry>
        </mxCell>
        <mxCell id="UAjvqrSmE-DBPClSDNn2-72" value="" style="rounded=0;orthogonalLoop=1;jettySize=auto;html=1;endArrow=halfCircle;endFill=0;entryX=0.5;entryY=0.5;entryDx=0;entryDy=0;endSize=6;strokeWidth=1;" edge="1" target="UAjvqrSmE-DBPClSDNn2-73" parent="UAjvqrSmE-DBPClSDNn2-1">
          <mxGeometry relative="1" as="geometry">
            <mxPoint x="510" y="205" as="sourcePoint" />
          </mxGeometry>
        </mxCell>
        <mxCell id="UAjvqrSmE-DBPClSDNn2-73" value="" style="ellipse;whiteSpace=wrap;html=1;fontFamily=Helvetica;fontSize=12;fontColor=#000000;align=center;strokeColor=#000000;fillColor=#ffffff;points=[];aspect=fixed;resizable=0;" vertex="1" parent="UAjvqrSmE-DBPClSDNn2-1">
          <mxGeometry x="475" y="200" width="10" height="10" as="geometry" />
        </mxCell>
        <mxCell id="UAjvqrSmE-DBPClSDNn2-77" value="Security" style="shape=module;align=left;spacingLeft=20;align=center;verticalAlign=top;" vertex="1" parent="UAjvqrSmE-DBPClSDNn2-1">
          <mxGeometry x="510" y="70" width="100" height="50" as="geometry" />
        </mxCell>
        <mxCell id="UAjvqrSmE-DBPClSDNn2-83" value="" style="rounded=0;orthogonalLoop=1;jettySize=auto;html=1;endArrow=none;endFill=0;" edge="1" target="UAjvqrSmE-DBPClSDNn2-85" parent="UAjvqrSmE-DBPClSDNn2-1">
          <mxGeometry relative="1" as="geometry">
            <mxPoint x="440" y="105" as="sourcePoint" />
          </mxGeometry>
        </mxCell>
        <mxCell id="UAjvqrSmE-DBPClSDNn2-84" value="" style="rounded=0;orthogonalLoop=1;jettySize=auto;html=1;endArrow=halfCircle;endFill=0;entryX=0.5;entryY=0.5;entryDx=0;entryDy=0;endSize=6;strokeWidth=1;exitX=0;exitY=0;exitDx=0;exitDy=35;exitPerimeter=0;" edge="1" target="UAjvqrSmE-DBPClSDNn2-85" parent="UAjvqrSmE-DBPClSDNn2-1" source="UAjvqrSmE-DBPClSDNn2-77">
          <mxGeometry relative="1" as="geometry">
            <mxPoint x="500" y="105" as="sourcePoint" />
          </mxGeometry>
        </mxCell>
        <mxCell id="UAjvqrSmE-DBPClSDNn2-85" value="" style="ellipse;whiteSpace=wrap;html=1;fontFamily=Helvetica;fontSize=12;fontColor=#000000;align=center;strokeColor=#000000;fillColor=#ffffff;points=[];aspect=fixed;resizable=0;" vertex="1" parent="UAjvqrSmE-DBPClSDNn2-1">
          <mxGeometry x="475" y="100" width="10" height="10" as="geometry" />
        </mxCell>
        <mxCell id="UAjvqrSmE-DBPClSDNn2-86" value="Persistance" style="shape=module;align=left;spacingLeft=20;align=center;verticalAlign=top;" vertex="1" parent="UAjvqrSmE-DBPClSDNn2-1">
          <mxGeometry x="510" y="190" width="100" height="50" as="geometry" />
        </mxCell>
        <mxCell id="UAjvqrSmE-DBPClSDNn2-87" value="" style="rounded=0;orthogonalLoop=1;jettySize=auto;html=1;endArrow=none;endFill=0;" edge="1" target="UAjvqrSmE-DBPClSDNn2-89" parent="UAjvqrSmE-DBPClSDNn2-1">
          <mxGeometry relative="1" as="geometry">
            <mxPoint x="440" y="225" as="sourcePoint" />
          </mxGeometry>
        </mxCell>
        <mxCell id="UAjvqrSmE-DBPClSDNn2-88" value="" style="rounded=0;orthogonalLoop=1;jettySize=auto;html=1;endArrow=halfCircle;endFill=0;entryX=0.5;entryY=0.5;entryDx=0;entryDy=0;endSize=6;strokeWidth=1;exitX=0;exitY=0;exitDx=0;exitDy=35;exitPerimeter=0;" edge="1" target="UAjvqrSmE-DBPClSDNn2-89" parent="UAjvqrSmE-DBPClSDNn2-1" source="UAjvqrSmE-DBPClSDNn2-86">
          <mxGeometry relative="1" as="geometry">
            <mxPoint x="500" y="225" as="sourcePoint" />
          </mxGeometry>
        </mxCell>
        <mxCell id="UAjvqrSmE-DBPClSDNn2-89" value="" style="ellipse;whiteSpace=wrap;html=1;fontFamily=Helvetica;fontSize=12;fontColor=#000000;align=center;strokeColor=#000000;fillColor=#ffffff;points=[];aspect=fixed;resizable=0;" vertex="1" parent="UAjvqrSmE-DBPClSDNn2-1">
          <mxGeometry x="475" y="220" width="10" height="10" as="geometry" />
        </mxCell>
        <mxCell id="UAjvqrSmE-DBPClSDNn2-90" value="Encryption" style="text;html=1;align=center;verticalAlign=middle;resizable=0;points=[];autosize=1;" vertex="1" parent="UAjvqrSmE-DBPClSDNn2-1">
          <mxGeometry x="449" y="60" width="70" height="20" as="geometry" />
        </mxCell>
        <mxCell id="UAjvqrSmE-DBPClSDNn2-91" value="Acess Control" style="text;html=1;align=center;verticalAlign=middle;resizable=0;points=[];autosize=1;" vertex="1" parent="UAjvqrSmE-DBPClSDNn2-1">
          <mxGeometry x="435" y="110" width="90" height="20" as="geometry" />
        </mxCell>
        <mxCell id="UAjvqrSmE-DBPClSDNn2-92" value="Encryption" style="text;html=1;align=center;verticalAlign=middle;resizable=0;points=[];autosize=1;" vertex="1" parent="UAjvqrSmE-DBPClSDNn2-1">
          <mxGeometry x="445" y="180" width="70" height="20" as="geometry" />
        </mxCell>
        <mxCell id="UAjvqrSmE-DBPClSDNn2-93" value="Acess Control" style="text;html=1;align=center;verticalAlign=middle;resizable=0;points=[];autosize=1;" vertex="1" parent="UAjvqrSmE-DBPClSDNn2-1">
          <mxGeometry x="435" y="230" width="90" height="20" as="geometry" />
        </mxCell>
        <mxCell id="UAjvqrSmE-DBPClSDNn2-94" value="Module" style="shape=module;align=left;spacingLeft=20;align=center;verticalAlign=top;" vertex="1" parent="UAjvqrSmE-DBPClSDNn2-1">
          <mxGeometry x="470" y="295" width="100" height="50" as="geometry" />
        </mxCell>
        <mxCell id="UAjvqrSmE-DBPClSDNn2-95" value="Database&lt;br&gt;Connector" style="text;html=1;align=center;verticalAlign=middle;resizable=0;points=[];autosize=1;" vertex="1" parent="UAjvqrSmE-DBPClSDNn2-1">
          <mxGeometry x="570" y="279" width="70" height="30" as="geometry" />
        </mxCell>
        <mxCell id="UAjvqrSmE-DBPClSDNn2-99" value="" style="rounded=0;orthogonalLoop=1;jettySize=auto;html=1;endArrow=none;endFill=0;exitX=1;exitY=0.5;exitDx=0;exitDy=0;" edge="1" target="UAjvqrSmE-DBPClSDNn2-101" parent="UAjvqrSmE-DBPClSDNn2-1" source="UAjvqrSmE-DBPClSDNn2-94">
          <mxGeometry relative="1" as="geometry">
            <mxPoint x="570" y="325" as="sourcePoint" />
          </mxGeometry>
        </mxCell>
        <mxCell id="UAjvqrSmE-DBPClSDNn2-100" value="" style="rounded=0;orthogonalLoop=1;jettySize=auto;html=1;endArrow=halfCircle;endFill=0;entryX=0.5;entryY=0.5;entryDx=0;entryDy=0;endSize=6;strokeWidth=1;" edge="1" target="UAjvqrSmE-DBPClSDNn2-101" parent="UAjvqrSmE-DBPClSDNn2-1">
          <mxGeometry relative="1" as="geometry">
            <mxPoint x="640" y="320" as="sourcePoint" />
          </mxGeometry>
        </mxCell>
        <mxCell id="UAjvqrSmE-DBPClSDNn2-101" value="" style="ellipse;whiteSpace=wrap;html=1;fontFamily=Helvetica;fontSize=12;fontColor=#000000;align=center;strokeColor=#000000;fillColor=#ffffff;points=[];aspect=fixed;resizable=0;" vertex="1" parent="UAjvqrSmE-DBPClSDNn2-1">
          <mxGeometry x="585" y="315" width="10" height="10" as="geometry" />
        </mxCell>
        <mxCell id="UAjvqrSmE-DBPClSDNn2-102" value="" style="endArrow=none;html=1;" edge="1" parent="UAjvqrSmE-DBPClSDNn2-1">
          <mxGeometry width="50" height="50" relative="1" as="geometry">
            <mxPoint x="640" y="320" as="sourcePoint" />
            <mxPoint x="640" y="220" as="targetPoint" />
          </mxGeometry>
        </mxCell>
        <mxCell id="UAjvqrSmE-DBPClSDNn2-104" value="" style="endArrow=none;html=1;exitX=1;exitY=0.609;exitDx=0;exitDy=0;exitPerimeter=0;" edge="1" parent="UAjvqrSmE-DBPClSDNn2-1" source="UAjvqrSmE-DBPClSDNn2-86">
          <mxGeometry width="50" height="50" relative="1" as="geometry">
            <mxPoint x="610" y="230" as="sourcePoint" />
            <mxPoint x="640" y="220" as="targetPoint" />
          </mxGeometry>
        </mxCell>
      </root>
    </mxGraphModel>
  </diagram>
  <diagram id="jeUGBMzg49G8-UGrm7Zm" name="Page-3">
    <mxGraphModel dx="534" dy="534" grid="1" gridSize="811" guides="1" tooltips="1" connect="1" arrows="1" fold="1" page="1" pageScale="1" pageWidth="850" pageHeight="1100" math="0" shadow="0">
      <root>
        <mxCell id="9E29XGT2izu4AVg1jU9F-0" />
        <mxCell id="9E29XGT2izu4AVg1jU9F-1" parent="9E29XGT2izu4AVg1jU9F-0" />
        <mxCell id="9E29XGT2izu4AVg1jU9F-2" value="Super Admin" style="shape=umlActor;verticalLabelPosition=bottom;labelBackgroundColor=#ffffff;verticalAlign=top;html=1;" vertex="1" parent="9E29XGT2izu4AVg1jU9F-1">
          <mxGeometry x="20" y="80" width="30" height="60" as="geometry" />
        </mxCell>
        <mxCell id="9E29XGT2izu4AVg1jU9F-3" value="System User" style="shape=umlActor;verticalLabelPosition=bottom;labelBackgroundColor=#ffffff;verticalAlign=top;html=1;" vertex="1" parent="9E29XGT2izu4AVg1jU9F-1">
          <mxGeometry x="20" y="385" width="30" height="60" as="geometry" />
        </mxCell>
        <mxCell id="9E29XGT2izu4AVg1jU9F-4" value="ShopKeeper" style="shape=umlActor;verticalLabelPosition=bottom;labelBackgroundColor=#ffffff;verticalAlign=top;html=1;" vertex="1" parent="9E29XGT2izu4AVg1jU9F-1">
          <mxGeometry x="500" y="95" width="30" height="60" as="geometry" />
        </mxCell>
        <mxCell id="9E29XGT2izu4AVg1jU9F-5" value="Customers" style="shape=umlActor;verticalLabelPosition=bottom;labelBackgroundColor=#ffffff;verticalAlign=top;html=1;" vertex="1" parent="9E29XGT2izu4AVg1jU9F-1">
          <mxGeometry x="500" y="400" width="30" height="60" as="geometry" />
        </mxCell>
        <mxCell id="9E29XGT2izu4AVg1jU9F-6" value="Manage users and&lt;br&gt;&amp;nbsp;full application" style="ellipse;whiteSpace=wrap;html=1;" vertex="1" parent="9E29XGT2izu4AVg1jU9F-1">
          <mxGeometry x="120" y="60" width="130" height="35" as="geometry" />
        </mxCell>
        <mxCell id="9E29XGT2izu4AVg1jU9F-7" value="Manage Medicines" style="ellipse;whiteSpace=wrap;html=1;" vertex="1" parent="9E29XGT2izu4AVg1jU9F-1">
          <mxGeometry x="120" y="110" width="130" height="30" as="geometry" />
        </mxCell>
        <mxCell id="9E29XGT2izu4AVg1jU9F-8" value="Manage Sells" style="ellipse;whiteSpace=wrap;html=1;" vertex="1" parent="9E29XGT2izu4AVg1jU9F-1">
          <mxGeometry x="120" y="150" width="130" height="30" as="geometry" />
        </mxCell>
        <mxCell id="9E29XGT2izu4AVg1jU9F-9" value="View Stocks" style="ellipse;whiteSpace=wrap;html=1;" vertex="1" parent="9E29XGT2izu4AVg1jU9F-1">
          <mxGeometry x="290" y="65" width="130" height="30" as="geometry" />
        </mxCell>
        <mxCell id="9E29XGT2izu4AVg1jU9F-10" value="Add Medicines" style="ellipse;whiteSpace=wrap;html=1;" vertex="1" parent="9E29XGT2izu4AVg1jU9F-1">
          <mxGeometry x="290" y="110" width="130" height="30" as="geometry" />
        </mxCell>
        <mxCell id="9E29XGT2izu4AVg1jU9F-11" value="Create Bills" style="ellipse;whiteSpace=wrap;html=1;" vertex="1" parent="9E29XGT2izu4AVg1jU9F-1">
          <mxGeometry x="295" y="160" width="130" height="30" as="geometry" />
        </mxCell>
        <mxCell id="9E29XGT2izu4AVg1jU9F-12" value="Login and Logout &lt;br&gt;from System" style="ellipse;whiteSpace=wrap;html=1;" vertex="1" parent="9E29XGT2izu4AVg1jU9F-1">
          <mxGeometry x="220" y="220" width="140" height="30" as="geometry" />
        </mxCell>
        <mxCell id="9E29XGT2izu4AVg1jU9F-13" value="Update my Profile" style="ellipse;whiteSpace=wrap;html=1;" vertex="1" parent="9E29XGT2izu4AVg1jU9F-1">
          <mxGeometry x="220" y="260" width="140" height="30" as="geometry" />
        </mxCell>
        <mxCell id="9E29XGT2izu4AVg1jU9F-14" value="Change Account password" style="ellipse;whiteSpace=wrap;html=1;" vertex="1" parent="9E29XGT2izu4AVg1jU9F-1">
          <mxGeometry x="220" y="300" width="140" height="30" as="geometry" />
        </mxCell>
        <mxCell id="9E29XGT2izu4AVg1jU9F-15" value="Manage Stocks" style="ellipse;whiteSpace=wrap;html=1;" vertex="1" parent="9E29XGT2izu4AVg1jU9F-1">
          <mxGeometry x="120" y="370" width="130" height="30" as="geometry" />
        </mxCell>
        <mxCell id="9E29XGT2izu4AVg1jU9F-16" value="Manage Company" style="ellipse;whiteSpace=wrap;html=1;" vertex="1" parent="9E29XGT2izu4AVg1jU9F-1">
          <mxGeometry x="120" y="415" width="130" height="30" as="geometry" />
        </mxCell>
        <mxCell id="9E29XGT2izu4AVg1jU9F-17" value="Manage Inventory" style="ellipse;whiteSpace=wrap;html=1;" vertex="1" parent="9E29XGT2izu4AVg1jU9F-1">
          <mxGeometry x="120" y="465" width="130" height="30" as="geometry" />
        </mxCell>
        <mxCell id="9E29XGT2izu4AVg1jU9F-18" value="Orders for Medicines" style="ellipse;whiteSpace=wrap;html=1;" vertex="1" parent="9E29XGT2izu4AVg1jU9F-1">
          <mxGeometry x="290" y="370" width="130" height="30" as="geometry" />
        </mxCell>
        <mxCell id="9E29XGT2izu4AVg1jU9F-19" value="View Bills" style="ellipse;whiteSpace=wrap;html=1;" vertex="1" parent="9E29XGT2izu4AVg1jU9F-1">
          <mxGeometry x="290" y="415" width="130" height="30" as="geometry" />
        </mxCell>
        <mxCell id="9E29XGT2izu4AVg1jU9F-20" value="Make Payments" style="ellipse;whiteSpace=wrap;html=1;" vertex="1" parent="9E29XGT2izu4AVg1jU9F-1">
          <mxGeometry x="295" y="465" width="130" height="30" as="geometry" />
        </mxCell>
        <mxCell id="9E29XGT2izu4AVg1jU9F-21" value="" style="endArrow=none;html=1;entryX=0;entryY=0.5;entryDx=0;entryDy=0;" edge="1" parent="9E29XGT2izu4AVg1jU9F-1" target="9E29XGT2izu4AVg1jU9F-7">
          <mxGeometry width="50" height="50" relative="1" as="geometry">
            <mxPoint x="60" y="125" as="sourcePoint" />
            <mxPoint x="110" y="110" as="targetPoint" />
          </mxGeometry>
        </mxCell>
        <mxCell id="9E29XGT2izu4AVg1jU9F-22" value="" style="endArrow=none;html=1;entryX=0;entryY=0.3;entryDx=0;entryDy=0;entryPerimeter=0;" edge="1" parent="9E29XGT2izu4AVg1jU9F-1" target="9E29XGT2izu4AVg1jU9F-8">
          <mxGeometry width="50" height="50" relative="1" as="geometry">
            <mxPoint x="60" y="140" as="sourcePoint" />
            <mxPoint x="130" y="225" as="targetPoint" />
          </mxGeometry>
        </mxCell>
        <mxCell id="9E29XGT2izu4AVg1jU9F-23" value="" style="endArrow=none;html=1;entryX=0;entryY=0.5;entryDx=0;entryDy=0;" edge="1" parent="9E29XGT2izu4AVg1jU9F-1" target="9E29XGT2izu4AVg1jU9F-6">
          <mxGeometry width="50" height="50" relative="1" as="geometry">
            <mxPoint x="60" y="115" as="sourcePoint" />
            <mxPoint x="120" y="100" as="targetPoint" />
          </mxGeometry>
        </mxCell>
        <mxCell id="9E29XGT2izu4AVg1jU9F-24" value="" style="endArrow=none;html=1;entryX=0;entryY=0.5;entryDx=0;entryDy=0;" edge="1" parent="9E29XGT2izu4AVg1jU9F-1" target="9E29XGT2izu4AVg1jU9F-12">
          <mxGeometry width="50" height="50" relative="1" as="geometry">
            <mxPoint x="60" y="150" as="sourcePoint" />
            <mxPoint x="140" y="195" as="targetPoint" />
          </mxGeometry>
        </mxCell>
        <mxCell id="9E29XGT2izu4AVg1jU9F-25" value="" style="endArrow=none;html=1;entryX=0;entryY=0.5;entryDx=0;entryDy=0;" edge="1" parent="9E29XGT2izu4AVg1jU9F-1" target="9E29XGT2izu4AVg1jU9F-13">
          <mxGeometry width="50" height="50" relative="1" as="geometry">
            <mxPoint x="60" y="160" as="sourcePoint" />
            <mxPoint x="130" y="185" as="targetPoint" />
          </mxGeometry>
        </mxCell>
        <mxCell id="9E29XGT2izu4AVg1jU9F-26" value="" style="endArrow=none;html=1;entryX=0;entryY=0.5;entryDx=0;entryDy=0;" edge="1" parent="9E29XGT2izu4AVg1jU9F-1" target="9E29XGT2izu4AVg1jU9F-14">
          <mxGeometry width="50" height="50" relative="1" as="geometry">
            <mxPoint x="60" y="170" as="sourcePoint" />
            <mxPoint x="110" y="175" as="targetPoint" />
          </mxGeometry>
        </mxCell>
        <mxCell id="9E29XGT2izu4AVg1jU9F-27" value="" style="endArrow=none;html=1;entryX=0;entryY=0.5;entryDx=0;entryDy=0;" edge="1" parent="9E29XGT2izu4AVg1jU9F-1" target="9E29XGT2izu4AVg1jU9F-15">
          <mxGeometry width="50" height="50" relative="1" as="geometry">
            <mxPoint x="60" y="180" as="sourcePoint" />
            <mxPoint x="120" y="205" as="targetPoint" />
          </mxGeometry>
        </mxCell>
        <mxCell id="9E29XGT2izu4AVg1jU9F-28" value="" style="endArrow=none;html=1;entryX=0;entryY=0.5;entryDx=0;entryDy=0;" edge="1" parent="9E29XGT2izu4AVg1jU9F-1" target="9E29XGT2izu4AVg1jU9F-16">
          <mxGeometry width="50" height="50" relative="1" as="geometry">
            <mxPoint x="50" y="180" as="sourcePoint" />
            <mxPoint x="120" y="275" as="targetPoint" />
          </mxGeometry>
        </mxCell>
        <mxCell id="9E29XGT2izu4AVg1jU9F-29" value="" style="endArrow=none;html=1;entryX=0.031;entryY=0.267;entryDx=0;entryDy=0;entryPerimeter=0;" edge="1" parent="9E29XGT2izu4AVg1jU9F-1" target="9E29XGT2izu4AVg1jU9F-17">
          <mxGeometry width="50" height="50" relative="1" as="geometry">
            <mxPoint x="40" y="180" as="sourcePoint" />
            <mxPoint x="100" y="245" as="targetPoint" />
          </mxGeometry>
        </mxCell>
        <mxCell id="9E29XGT2izu4AVg1jU9F-30" value="" style="endArrow=none;html=1;entryX=-0.008;entryY=0.733;entryDx=0;entryDy=0;entryPerimeter=0;" edge="1" parent="9E29XGT2izu4AVg1jU9F-1" target="9E29XGT2izu4AVg1jU9F-7">
          <mxGeometry width="50" height="50" relative="1" as="geometry">
            <mxPoint x="50" y="380" as="sourcePoint" />
            <mxPoint x="126" y="140" as="targetPoint" />
          </mxGeometry>
        </mxCell>
        <mxCell id="9E29XGT2izu4AVg1jU9F-31" value="" style="endArrow=none;html=1;entryX=0.046;entryY=0.8;entryDx=0;entryDy=0;entryPerimeter=0;" edge="1" parent="9E29XGT2izu4AVg1jU9F-1" target="9E29XGT2izu4AVg1jU9F-12">
          <mxGeometry width="50" height="50" relative="1" as="geometry">
            <mxPoint x="60" y="380" as="sourcePoint" />
            <mxPoint x="220" y="235" as="targetPoint" />
          </mxGeometry>
        </mxCell>
        <mxCell id="9E29XGT2izu4AVg1jU9F-32" value="" style="endArrow=none;html=1;entryX=0.038;entryY=0.767;entryDx=0;entryDy=0;entryPerimeter=0;" edge="1" parent="9E29XGT2izu4AVg1jU9F-1" target="9E29XGT2izu4AVg1jU9F-13">
          <mxGeometry width="50" height="50" relative="1" as="geometry">
            <mxPoint x="60" y="390" as="sourcePoint" />
            <mxPoint x="120" y="385" as="targetPoint" />
          </mxGeometry>
        </mxCell>
        <mxCell id="9E29XGT2izu4AVg1jU9F-33" value="" style="endArrow=none;html=1;entryX=0.054;entryY=0.833;entryDx=0;entryDy=0;entryPerimeter=0;" edge="1" parent="9E29XGT2izu4AVg1jU9F-1" target="9E29XGT2izu4AVg1jU9F-14">
          <mxGeometry width="50" height="50" relative="1" as="geometry">
            <mxPoint x="60" y="400" as="sourcePoint" />
            <mxPoint x="130" y="395" as="targetPoint" />
          </mxGeometry>
        </mxCell>
        <mxCell id="9E29XGT2izu4AVg1jU9F-34" value="" style="endArrow=none;html=1;entryX=0.038;entryY=0.833;entryDx=0;entryDy=0;entryPerimeter=0;" edge="1" parent="9E29XGT2izu4AVg1jU9F-1" target="9E29XGT2izu4AVg1jU9F-15">
          <mxGeometry width="50" height="50" relative="1" as="geometry">
            <mxPoint x="60" y="410" as="sourcePoint" />
            <mxPoint x="120" y="395" as="targetPoint" />
          </mxGeometry>
        </mxCell>
        <mxCell id="9E29XGT2izu4AVg1jU9F-35" value="" style="endArrow=none;html=1;entryX=0.031;entryY=0.767;entryDx=0;entryDy=0;entryPerimeter=0;" edge="1" parent="9E29XGT2izu4AVg1jU9F-1" target="9E29XGT2izu4AVg1jU9F-16">
          <mxGeometry width="50" height="50" relative="1" as="geometry">
            <mxPoint x="60" y="420" as="sourcePoint" />
            <mxPoint x="130" y="415" as="targetPoint" />
          </mxGeometry>
        </mxCell>
        <mxCell id="9E29XGT2izu4AVg1jU9F-36" value="" style="endArrow=none;html=1;entryX=0;entryY=0.5;entryDx=0;entryDy=0;" edge="1" parent="9E29XGT2izu4AVg1jU9F-1" target="9E29XGT2izu4AVg1jU9F-17">
          <mxGeometry width="50" height="50" relative="1" as="geometry">
            <mxPoint x="60" y="430" as="sourcePoint" />
            <mxPoint x="140" y="445" as="targetPoint" />
          </mxGeometry>
        </mxCell>
        <mxCell id="9E29XGT2izu4AVg1jU9F-37" value="" style="endArrow=none;html=1;exitX=1;exitY=0.5;exitDx=0;exitDy=0;" edge="1" parent="9E29XGT2izu4AVg1jU9F-1" source="9E29XGT2izu4AVg1jU9F-9">
          <mxGeometry width="50" height="50" relative="1" as="geometry">
            <mxPoint x="430" y="100" as="sourcePoint" />
            <mxPoint x="490" y="100" as="targetPoint" />
          </mxGeometry>
        </mxCell>
        <mxCell id="9E29XGT2izu4AVg1jU9F-38" value="" style="endArrow=none;html=1;exitX=1;exitY=0.5;exitDx=0;exitDy=0;" edge="1" parent="9E29XGT2izu4AVg1jU9F-1" source="9E29XGT2izu4AVg1jU9F-10">
          <mxGeometry width="50" height="50" relative="1" as="geometry">
            <mxPoint x="440" y="130" as="sourcePoint" />
            <mxPoint x="490" y="115" as="targetPoint" />
          </mxGeometry>
        </mxCell>
        <mxCell id="9E29XGT2izu4AVg1jU9F-39" value="" style="endArrow=none;html=1;entryX=0;entryY=0.5;entryDx=0;entryDy=0;exitX=1;exitY=0.5;exitDx=0;exitDy=0;" edge="1" parent="9E29XGT2izu4AVg1jU9F-1" source="9E29XGT2izu4AVg1jU9F-11">
          <mxGeometry width="50" height="50" relative="1" as="geometry">
            <mxPoint x="430" y="140" as="sourcePoint" />
            <mxPoint x="490" y="125" as="targetPoint" />
          </mxGeometry>
        </mxCell>
        <mxCell id="9E29XGT2izu4AVg1jU9F-40" value="" style="endArrow=none;html=1;exitX=1;exitY=0.5;exitDx=0;exitDy=0;" edge="1" parent="9E29XGT2izu4AVg1jU9F-1" source="9E29XGT2izu4AVg1jU9F-12">
          <mxGeometry width="50" height="50" relative="1" as="geometry">
            <mxPoint x="440" y="190" as="sourcePoint" />
            <mxPoint x="490" y="130" as="targetPoint" />
          </mxGeometry>
        </mxCell>
        <mxCell id="9E29XGT2izu4AVg1jU9F-41" value="" style="endArrow=none;html=1;exitX=0.964;exitY=0.3;exitDx=0;exitDy=0;exitPerimeter=0;" edge="1" parent="9E29XGT2izu4AVg1jU9F-1" source="9E29XGT2izu4AVg1jU9F-13">
          <mxGeometry width="50" height="50" relative="1" as="geometry">
            <mxPoint x="450" y="200" as="sourcePoint" />
            <mxPoint x="490" y="140" as="targetPoint" />
          </mxGeometry>
        </mxCell>
        <mxCell id="9E29XGT2izu4AVg1jU9F-42" value="" style="endArrow=none;html=1;exitX=0.929;exitY=0.233;exitDx=0;exitDy=0;exitPerimeter=0;" edge="1" parent="9E29XGT2izu4AVg1jU9F-1" source="9E29XGT2izu4AVg1jU9F-14">
          <mxGeometry width="50" height="50" relative="1" as="geometry">
            <mxPoint x="490" y="220" as="sourcePoint" />
            <mxPoint x="490" y="150" as="targetPoint" />
          </mxGeometry>
        </mxCell>
        <mxCell id="9E29XGT2izu4AVg1jU9F-43" value="" style="endArrow=none;html=1;exitX=0.957;exitY=0.8;exitDx=0;exitDy=0;exitPerimeter=0;" edge="1" parent="9E29XGT2izu4AVg1jU9F-1" source="9E29XGT2izu4AVg1jU9F-12">
          <mxGeometry width="50" height="50" relative="1" as="geometry">
            <mxPoint x="460" y="330" as="sourcePoint" />
            <mxPoint x="490" y="400" as="targetPoint" />
          </mxGeometry>
        </mxCell>
        <mxCell id="9E29XGT2izu4AVg1jU9F-44" value="" style="endArrow=none;html=1;exitX=0.943;exitY=0.867;exitDx=0;exitDy=0;exitPerimeter=0;" edge="1" parent="9E29XGT2izu4AVg1jU9F-1" source="9E29XGT2izu4AVg1jU9F-13">
          <mxGeometry width="50" height="50" relative="1" as="geometry">
            <mxPoint x="470" y="410" as="sourcePoint" />
            <mxPoint x="490" y="410" as="targetPoint" />
          </mxGeometry>
        </mxCell>
        <mxCell id="9E29XGT2izu4AVg1jU9F-45" value="" style="endArrow=none;html=1;exitX=1;exitY=0.5;exitDx=0;exitDy=0;" edge="1" parent="9E29XGT2izu4AVg1jU9F-1" source="9E29XGT2izu4AVg1jU9F-14">
          <mxGeometry width="50" height="50" relative="1" as="geometry">
            <mxPoint x="460" y="420" as="sourcePoint" />
            <mxPoint x="490" y="420" as="targetPoint" />
          </mxGeometry>
        </mxCell>
        <mxCell id="9E29XGT2izu4AVg1jU9F-46" value="" style="endArrow=none;html=1;exitX=1;exitY=0.5;exitDx=0;exitDy=0;" edge="1" parent="9E29XGT2izu4AVg1jU9F-1" source="9E29XGT2izu4AVg1jU9F-18">
          <mxGeometry width="50" height="50" relative="1" as="geometry">
            <mxPoint x="450" y="430" as="sourcePoint" />
            <mxPoint x="490" y="430" as="targetPoint" />
          </mxGeometry>
        </mxCell>
        <mxCell id="9E29XGT2izu4AVg1jU9F-47" value="" style="endArrow=none;html=1;exitX=1;exitY=0.5;exitDx=0;exitDy=0;" edge="1" parent="9E29XGT2izu4AVg1jU9F-1" source="9E29XGT2izu4AVg1jU9F-19">
          <mxGeometry width="50" height="50" relative="1" as="geometry">
            <mxPoint x="450" y="430" as="sourcePoint" />
            <mxPoint x="490" y="440" as="targetPoint" />
          </mxGeometry>
        </mxCell>
        <mxCell id="9E29XGT2izu4AVg1jU9F-48" value="" style="endArrow=none;html=1;exitX=1;exitY=0.5;exitDx=0;exitDy=0;" edge="1" parent="9E29XGT2izu4AVg1jU9F-1" source="9E29XGT2izu4AVg1jU9F-20">
          <mxGeometry width="50" height="50" relative="1" as="geometry">
            <mxPoint x="470" y="460" as="sourcePoint" />
            <mxPoint x="490" y="450" as="targetPoint" />
          </mxGeometry>
        </mxCell>
      </root>
    </mxGraphModel>
  </diagram>
  <diagram id="F5dZ80l5A5u4dKubW2Fp" name="Page-4">
    <mxGraphModel dx="454" dy="454" grid="1" gridSize="811" guides="1" tooltips="1" connect="1" arrows="1" fold="1" page="0" pageScale="1" pageWidth="850" pageHeight="1100" math="0" shadow="0">
      <root>
        <mxCell id="QPzErJ-NexQ9VM_sqChB-0" />
        <mxCell id="QPzErJ-NexQ9VM_sqChB-1" parent="QPzErJ-NexQ9VM_sqChB-0" />
        <mxCell id="QPzErJ-NexQ9VM_sqChB-2" value="Customer" style="shape=umlActor;verticalLabelPosition=bottom;labelBackgroundColor=#ffffff;verticalAlign=top;html=1;outlineConnect=0;" vertex="1" parent="QPzErJ-NexQ9VM_sqChB-1">
          <mxGeometry x="50" y="150" width="30" height="60" as="geometry" />
        </mxCell>
        <mxCell id="5mRgJLN5VqNQ1yW69FFU-0" value="Actor" style="shape=umlActor;verticalLabelPosition=bottom;labelBackgroundColor=#ffffff;verticalAlign=top;html=1;outlineConnect=0;" vertex="1" parent="QPzErJ-NexQ9VM_sqChB-1">
          <mxGeometry x="370" y="150" width="30" height="60" as="geometry" />
        </mxCell>
        <mxCell id="5mRgJLN5VqNQ1yW69FFU-1" value="Enter Medicine name" style="ellipse;whiteSpace=wrap;html=1;" vertex="1" parent="QPzErJ-NexQ9VM_sqChB-1">
          <mxGeometry x="170" y="110" width="120" height="30" as="geometry" />
        </mxCell>
        <mxCell id="5mRgJLN5VqNQ1yW69FFU-2" value="Open Pharmacy Web" style="ellipse;whiteSpace=wrap;html=1;" vertex="1" parent="QPzErJ-NexQ9VM_sqChB-1">
          <mxGeometry x="170" y="60" width="120" height="30" as="geometry" />
        </mxCell>
        <mxCell id="5mRgJLN5VqNQ1yW69FFU-3" value="Show Results" style="ellipse;whiteSpace=wrap;html=1;" vertex="1" parent="QPzErJ-NexQ9VM_sqChB-1">
          <mxGeometry x="170" y="220" width="120" height="30" as="geometry" />
        </mxCell>
        <mxCell id="5mRgJLN5VqNQ1yW69FFU-4" value="Press search button" style="ellipse;whiteSpace=wrap;html=1;" vertex="1" parent="QPzErJ-NexQ9VM_sqChB-1">
          <mxGeometry x="170" y="170" width="120" height="30" as="geometry" />
        </mxCell>
        <mxCell id="5mRgJLN5VqNQ1yW69FFU-5" value="Refresh DataBase" style="ellipse;whiteSpace=wrap;html=1;" vertex="1" parent="QPzErJ-NexQ9VM_sqChB-1">
          <mxGeometry x="170" y="320" width="120" height="30" as="geometry" />
        </mxCell>
        <mxCell id="5mRgJLN5VqNQ1yW69FFU-6" value="Choose how to&lt;br&gt;buy product" style="ellipse;whiteSpace=wrap;html=1;" vertex="1" parent="QPzErJ-NexQ9VM_sqChB-1">
          <mxGeometry x="170" y="270" width="120" height="30" as="geometry" />
        </mxCell>
        <mxCell id="5mRgJLN5VqNQ1yW69FFU-7" value="" style="endArrow=none;html=1;entryX=0;entryY=0.5;entryDx=0;entryDy=0;" edge="1" parent="QPzErJ-NexQ9VM_sqChB-1" target="5mRgJLN5VqNQ1yW69FFU-2">
          <mxGeometry width="50" height="50" relative="1" as="geometry">
            <mxPoint x="90" y="150" as="sourcePoint" />
            <mxPoint x="140" y="100" as="targetPoint" />
          </mxGeometry>
        </mxCell>
        <mxCell id="5mRgJLN5VqNQ1yW69FFU-8" value="" style="endArrow=none;html=1;entryX=0;entryY=0.5;entryDx=0;entryDy=0;" edge="1" parent="QPzErJ-NexQ9VM_sqChB-1" target="5mRgJLN5VqNQ1yW69FFU-1">
          <mxGeometry width="50" height="50" relative="1" as="geometry">
            <mxPoint x="90" y="162.5" as="sourcePoint" />
            <mxPoint x="170" y="87.5" as="targetPoint" />
          </mxGeometry>
        </mxCell>
        <mxCell id="5mRgJLN5VqNQ1yW69FFU-9" value="" style="endArrow=none;html=1;entryX=0;entryY=0.5;entryDx=0;entryDy=0;" edge="1" parent="QPzErJ-NexQ9VM_sqChB-1" target="5mRgJLN5VqNQ1yW69FFU-4">
          <mxGeometry width="50" height="50" relative="1" as="geometry">
            <mxPoint x="90" y="170" as="sourcePoint" />
            <mxPoint x="170" y="132.5" as="targetPoint" />
          </mxGeometry>
        </mxCell>
        <mxCell id="5mRgJLN5VqNQ1yW69FFU-10" value="" style="endArrow=none;html=1;entryX=0;entryY=0.5;entryDx=0;entryDy=0;" edge="1" parent="QPzErJ-NexQ9VM_sqChB-1" target="5mRgJLN5VqNQ1yW69FFU-3">
          <mxGeometry width="50" height="50" relative="1" as="geometry">
            <mxPoint x="90" y="180" as="sourcePoint" />
            <mxPoint x="190" y="172.5" as="targetPoint" />
          </mxGeometry>
        </mxCell>
        <mxCell id="5mRgJLN5VqNQ1yW69FFU-11" value="" style="endArrow=none;html=1;entryX=0.017;entryY=0.233;entryDx=0;entryDy=0;entryPerimeter=0;" edge="1" parent="QPzErJ-NexQ9VM_sqChB-1" target="5mRgJLN5VqNQ1yW69FFU-6">
          <mxGeometry width="50" height="50" relative="1" as="geometry">
            <mxPoint x="90" y="200" as="sourcePoint" />
            <mxPoint x="210" y="202.5" as="targetPoint" />
          </mxGeometry>
        </mxCell>
        <mxCell id="5mRgJLN5VqNQ1yW69FFU-12" value="" style="endArrow=none;html=1;exitX=1;exitY=0.5;exitDx=0;exitDy=0;" edge="1" parent="QPzErJ-NexQ9VM_sqChB-1" source="5mRgJLN5VqNQ1yW69FFU-1">
          <mxGeometry width="50" height="50" relative="1" as="geometry">
            <mxPoint x="320" y="100" as="sourcePoint" />
            <mxPoint x="360" y="150" as="targetPoint" />
          </mxGeometry>
        </mxCell>
        <mxCell id="5mRgJLN5VqNQ1yW69FFU-13" value="" style="endArrow=none;html=1;exitX=1;exitY=0.3;exitDx=0;exitDy=0;exitPerimeter=0;" edge="1" parent="QPzErJ-NexQ9VM_sqChB-1" source="5mRgJLN5VqNQ1yW69FFU-4">
          <mxGeometry width="50" height="50" relative="1" as="geometry">
            <mxPoint x="320" y="170" as="sourcePoint" />
            <mxPoint x="360" y="170" as="targetPoint" />
          </mxGeometry>
        </mxCell>
        <mxCell id="5mRgJLN5VqNQ1yW69FFU-14" value="" style="endArrow=none;html=1;exitX=1;exitY=0.5;exitDx=0;exitDy=0;" edge="1" parent="QPzErJ-NexQ9VM_sqChB-1" source="5mRgJLN5VqNQ1yW69FFU-3">
          <mxGeometry width="50" height="50" relative="1" as="geometry">
            <mxPoint x="320" y="200" as="sourcePoint" />
            <mxPoint x="360" y="180" as="targetPoint" />
          </mxGeometry>
        </mxCell>
        <mxCell id="5mRgJLN5VqNQ1yW69FFU-15" value="" style="endArrow=none;html=1;exitX=1;exitY=0.5;exitDx=0;exitDy=0;" edge="1" parent="QPzErJ-NexQ9VM_sqChB-1" source="5mRgJLN5VqNQ1yW69FFU-6">
          <mxGeometry width="50" height="50" relative="1" as="geometry">
            <mxPoint x="340" y="220" as="sourcePoint" />
            <mxPoint x="360" y="190" as="targetPoint" />
          </mxGeometry>
        </mxCell>
        <mxCell id="5mRgJLN5VqNQ1yW69FFU-16" value="" style="endArrow=none;html=1;exitX=1;exitY=0.5;exitDx=0;exitDy=0;" edge="1" parent="QPzErJ-NexQ9VM_sqChB-1" source="5mRgJLN5VqNQ1yW69FFU-5">
          <mxGeometry width="50" height="50" relative="1" as="geometry">
            <mxPoint x="330" y="270" as="sourcePoint" />
            <mxPoint x="360" y="200" as="targetPoint" />
          </mxGeometry>
        </mxCell>
      </root>
    </mxGraphModel>
  </diagram>
  <diagram id="GI74grNpQXvXEtCmmMyi" name="Page-5">
    <mxGraphModel dx="1026" dy="534" grid="0" gridSize="10" guides="1" tooltips="1" connect="1" arrows="1" fold="1" page="0" pageScale="1" pageWidth="850" pageHeight="1100" math="0" shadow="0">
      <root>
        <mxCell id="Su9qCS7C3KEPJKWLoEow-0" />
        <mxCell id="Su9qCS7C3KEPJKWLoEow-1" parent="Su9qCS7C3KEPJKWLoEow-0" />
        <mxCell id="Su9qCS7C3KEPJKWLoEow-2" value="&lt;p style=&quot;margin: 0px ; margin-top: 4px ; text-align: center&quot;&gt;&lt;i&gt;Admin&lt;/i&gt;&lt;/p&gt;&lt;hr size=&quot;1&quot;&gt;&lt;p style=&quot;margin: 0px ; margin-left: 4px&quot;&gt;userName: String&lt;br&gt;&lt;/p&gt;&lt;p style=&quot;margin: 0px ; margin-left: 4px&quot;&gt;password: String&lt;/p&gt;&lt;p style=&quot;margin: 0px ; margin-left: 4px&quot;&gt;firstName: String&lt;/p&gt;&lt;p style=&quot;margin: 0px ; margin-left: 4px&quot;&gt;lastName: String&lt;/p&gt;&lt;p style=&quot;margin: 0px ; margin-left: 4px&quot;&gt;adminId: Snteger&lt;/p&gt;&lt;hr size=&quot;1&quot;&gt;&lt;p style=&quot;margin: 0px ; margin-left: 4px&quot;&gt;AddProduct(): String&lt;/p&gt;&lt;p style=&quot;margin: 0px ; margin-left: 4px&quot;&gt;AddProductCategory(): String&lt;br&gt;&lt;/p&gt;&lt;p style=&quot;margin: 0px ; margin-left: 4px&quot;&gt;DeleteProduct(): String&lt;br&gt;&lt;/p&gt;&lt;p style=&quot;margin: 0px ; margin-left: 4px&quot;&gt;DeleteProductCategory(): String&lt;br&gt;&lt;/p&gt;&lt;p style=&quot;margin: 0px ; margin-left: 4px&quot;&gt;DispachOrder(): Order&lt;/p&gt;&lt;p style=&quot;margin: 0px ; margin-left: 4px&quot;&gt;AddAccount(): Admin&lt;/p&gt;&lt;p style=&quot;margin: 0px ; margin-left: 4px&quot;&gt;ModifyProduct(): Product&lt;/p&gt;" style="verticalAlign=top;align=left;overflow=fill;fontSize=12;fontFamily=Helvetica;html=1;" vertex="1" parent="Su9qCS7C3KEPJKWLoEow-1">
          <mxGeometry x="90" y="100" width="180" height="220" as="geometry" />
        </mxCell>
        <mxCell id="Su9qCS7C3KEPJKWLoEow-3" value="&lt;p style=&quot;margin: 0px ; margin-top: 4px ; text-align: center&quot;&gt;&lt;i&gt;Customer&lt;/i&gt;&lt;/p&gt;&lt;hr size=&quot;1&quot;&gt;&lt;p style=&quot;margin: 0px ; margin-left: 4px&quot;&gt;customerId: Integer&lt;/p&gt;&lt;p style=&quot;margin: 0px ; margin-left: 4px&quot;&gt;password: String&lt;/p&gt;&lt;p style=&quot;margin: 0px ; margin-left: 4px&quot;&gt;firstName: String&lt;/p&gt;&lt;p style=&quot;margin: 0px ; margin-left: 4px&quot;&gt;lastName: String&lt;/p&gt;&lt;p style=&quot;margin: 0px ; margin-left: 4px&quot;&gt;shipAddress: String&lt;/p&gt;&lt;p style=&quot;margin: 0px ; margin-left: 4px&quot;&gt;billingAddress: String&lt;/p&gt;&lt;p style=&quot;margin: 0px ; margin-left: 4px&quot;&gt;emailAddress: String&lt;/p&gt;&lt;hr size=&quot;1&quot;&gt;&lt;p style=&quot;margin: 0px ; margin-left: 4px&quot;&gt;+ PlaceOrder(): Order&lt;br&gt;+ viewProduct(): Product&lt;/p&gt;&lt;p style=&quot;margin: 0px ; margin-left: 4px&quot;&gt;&lt;br&gt;&lt;/p&gt;" style="verticalAlign=top;align=left;overflow=fill;fontSize=12;fontFamily=Helvetica;html=1;" vertex="1" parent="Su9qCS7C3KEPJKWLoEow-1">
          <mxGeometry x="415" y="415" width="180" height="180" as="geometry" />
        </mxCell>
        <mxCell id="Su9qCS7C3KEPJKWLoEow-4" value="&lt;p style=&quot;margin: 0px ; margin-top: 4px ; text-align: center ; text-decoration: underline&quot;&gt;&lt;b&gt;Product&lt;/b&gt;&lt;/p&gt;&lt;hr&gt;&lt;p style=&quot;margin: 0px ; margin-left: 8px&quot;&gt;productId: Integer&lt;/p&gt;&lt;p style=&quot;margin: 0px ; margin-left: 8px&quot;&gt;categoryId: Integer&lt;/p&gt;&lt;p style=&quot;margin: 0px ; margin-left: 8px&quot;&gt;productCode: String&lt;/p&gt;&lt;p style=&quot;margin: 0px ; margin-left: 8px&quot;&gt;productName: String&lt;/p&gt;&lt;p style=&quot;margin: 0px ; margin-left: 8px&quot;&gt;description: String&lt;/p&gt;&lt;p style=&quot;margin: 0px ; margin-left: 8px&quot;&gt;listPrice: Integer&lt;/p&gt;&lt;p style=&quot;margin: 0px ; margin-left: 8px&quot;&gt;discountPrice: Integer&lt;/p&gt;&lt;p style=&quot;margin: 0px ; margin-left: 8px&quot;&gt;dateAdded: Date&lt;/p&gt;" style="verticalAlign=top;align=left;overflow=fill;fontSize=12;fontFamily=Helvetica;html=1;" vertex="1" parent="Su9qCS7C3KEPJKWLoEow-1">
          <mxGeometry x="100" y="420" width="160" height="150" as="geometry" />
        </mxCell>
        <mxCell id="Su9qCS7C3KEPJKWLoEow-5" value="&lt;p style=&quot;margin: 0px ; margin-top: 4px ; text-align: center ; text-decoration: underline&quot;&gt;&lt;b&gt;Order&lt;/b&gt;&lt;/p&gt;&lt;hr&gt;&lt;p style=&quot;margin: 0px ; margin-left: 8px&quot;&gt;orderId: Integer&lt;/p&gt;&lt;p style=&quot;margin: 0px ; margin-left: 8px&quot;&gt;customerId: Integer&lt;/p&gt;&lt;p style=&quot;margin: 0px ; margin-left: 8px&quot;&gt;orderDate: Date&lt;/p&gt;&lt;p style=&quot;margin: 0px ; margin-left: 8px&quot;&gt;shipAmount: Integer&lt;/p&gt;&lt;p style=&quot;margin: 0px ; margin-left: 8px&quot;&gt;thaxAmount: Integer&lt;/p&gt;&lt;p style=&quot;margin: 0px ; margin-left: 8px&quot;&gt;shipDate: Date&lt;/p&gt;&lt;p style=&quot;margin: 0px ; margin-left: 8px&quot;&gt;shipAddressId: Integer&lt;/p&gt;&lt;p style=&quot;margin: 0px ; margin-left: 8px&quot;&gt;cardType: Integer&lt;/p&gt;&lt;p style=&quot;margin: 0px ; margin-left: 8px&quot;&gt;cardNumber: String&lt;/p&gt;&lt;p style=&quot;margin: 0px ; margin-left: 8px&quot;&gt;cardExpires: String&lt;/p&gt;&lt;p style=&quot;margin: 0px ; margin-left: 8px&quot;&gt;billingAddress: String&lt;/p&gt;" style="verticalAlign=top;align=left;overflow=fill;fontSize=12;fontFamily=Helvetica;html=1;" vertex="1" parent="Su9qCS7C3KEPJKWLoEow-1">
          <mxGeometry x="430" y="115" width="150" height="190" as="geometry" />
        </mxCell>
        <mxCell id="Su9qCS7C3KEPJKWLoEow-6" value="" style="line;strokeWidth=1;fillColor=none;align=left;verticalAlign=middle;spacingTop=-1;spacingLeft=3;spacingRight=3;rotatable=0;labelPosition=right;points=[];portConstraint=eastwest;" vertex="1" parent="Su9qCS7C3KEPJKWLoEow-1">
          <mxGeometry x="270" y="211" width="160" height="8" as="geometry" />
        </mxCell>
        <mxCell id="Su9qCS7C3KEPJKWLoEow-13" value="" style="endArrow=none;html=1;exitX=0.5;exitY=0;exitDx=0;exitDy=0;entryX=0.5;entryY=1;entryDx=0;entryDy=0;" edge="1" parent="Su9qCS7C3KEPJKWLoEow-1" source="Su9qCS7C3KEPJKWLoEow-4" target="Su9qCS7C3KEPJKWLoEow-2">
          <mxGeometry width="50" height="50" relative="1" as="geometry">
            <mxPoint x="130" y="380" as="sourcePoint" />
            <mxPoint x="180" y="330" as="targetPoint" />
          </mxGeometry>
        </mxCell>
        <mxCell id="Su9qCS7C3KEPJKWLoEow-14" value="" style="endArrow=diamondThin;endFill=0;endSize=24;html=1;entryX=0;entryY=0.5;entryDx=0;entryDy=0;" edge="1" parent="Su9qCS7C3KEPJKWLoEow-1" target="Su9qCS7C3KEPJKWLoEow-3">
          <mxGeometry width="160" relative="1" as="geometry">
            <mxPoint x="260" y="505" as="sourcePoint" />
            <mxPoint x="420" y="514.5" as="targetPoint" />
          </mxGeometry>
        </mxCell>
        <mxCell id="Su9qCS7C3KEPJKWLoEow-15" value="" style="endArrow=diamondThin;endFill=0;endSize=24;html=1;entryX=0.5;entryY=0;entryDx=0;entryDy=0;exitX=0.5;exitY=1;exitDx=0;exitDy=0;" edge="1" parent="Su9qCS7C3KEPJKWLoEow-1" source="Su9qCS7C3KEPJKWLoEow-5" target="Su9qCS7C3KEPJKWLoEow-3">
          <mxGeometry width="160" relative="1" as="geometry">
            <mxPoint x="605" y="300" as="sourcePoint" />
            <mxPoint x="650" y="380" as="targetPoint" />
          </mxGeometry>
        </mxCell>
        <mxCell id="Su9qCS7C3KEPJKWLoEow-16" value="order" style="text;html=1;align=center;verticalAlign=middle;resizable=0;points=[];autosize=1;" vertex="1" parent="Su9qCS7C3KEPJKWLoEow-1">
          <mxGeometry x="386" y="175" width="40" height="20" as="geometry" />
        </mxCell>
        <mxCell id="Su9qCS7C3KEPJKWLoEow-17" value="1" style="text;html=1;align=center;verticalAlign=middle;resizable=0;points=[];autosize=1;" vertex="1" parent="Su9qCS7C3KEPJKWLoEow-1">
          <mxGeometry x="406" y="225" width="20" height="20" as="geometry" />
        </mxCell>
        <mxCell id="Su9qCS7C3KEPJKWLoEow-18" value="admin" style="text;html=1;align=center;verticalAlign=middle;resizable=0;points=[];autosize=1;" vertex="1" parent="Su9qCS7C3KEPJKWLoEow-1">
          <mxGeometry x="280" y="225" width="50" height="20" as="geometry" />
        </mxCell>
        <mxCell id="Su9qCS7C3KEPJKWLoEow-19" value="1" style="text;html=1;align=center;verticalAlign=middle;resizable=0;points=[];autosize=1;" vertex="1" parent="Su9qCS7C3KEPJKWLoEow-1">
          <mxGeometry x="190" y="400" width="20" height="20" as="geometry" />
        </mxCell>
        <mxCell id="Su9qCS7C3KEPJKWLoEow-20" value="product" style="text;html=1;align=center;verticalAlign=middle;resizable=0;points=[];autosize=1;" vertex="1" parent="Su9qCS7C3KEPJKWLoEow-1">
          <mxGeometry x="120" y="400" width="60" height="20" as="geometry" />
        </mxCell>
        <mxCell id="Su9qCS7C3KEPJKWLoEow-21" value="admin" style="text;html=1;align=center;verticalAlign=middle;resizable=0;points=[];autosize=1;" vertex="1" parent="Su9qCS7C3KEPJKWLoEow-1">
          <mxGeometry x="125" y="330" width="50" height="20" as="geometry" />
        </mxCell>
        <mxCell id="Su9qCS7C3KEPJKWLoEow-22" value="Product" style="text;html=1;align=center;verticalAlign=middle;resizable=0;points=[];autosize=1;" vertex="1" parent="Su9qCS7C3KEPJKWLoEow-1">
          <mxGeometry x="260" y="510" width="60" height="20" as="geometry" />
        </mxCell>
        <mxCell id="Su9qCS7C3KEPJKWLoEow-23" value="Customer" style="text;html=1;align=center;verticalAlign=middle;resizable=0;points=[];autosize=1;" vertex="1" parent="Su9qCS7C3KEPJKWLoEow-1">
          <mxGeometry x="336" y="480" width="70" height="20" as="geometry" />
        </mxCell>
        <mxCell id="Su9qCS7C3KEPJKWLoEow-24" value="1..*" style="text;html=1;align=center;verticalAlign=middle;resizable=0;points=[];autosize=1;" vertex="1" parent="Su9qCS7C3KEPJKWLoEow-1">
          <mxGeometry x="376" y="520" width="30" height="20" as="geometry" />
        </mxCell>
        <mxCell id="Su9qCS7C3KEPJKWLoEow-25" value="1" style="text;html=1;align=center;verticalAlign=middle;resizable=0;points=[];autosize=1;" vertex="1" parent="Su9qCS7C3KEPJKWLoEow-1">
          <mxGeometry x="510" y="310" width="20" height="20" as="geometry" />
        </mxCell>
        <mxCell id="Su9qCS7C3KEPJKWLoEow-26" value="order" style="text;html=1;align=center;verticalAlign=middle;resizable=0;points=[];autosize=1;" vertex="1" parent="Su9qCS7C3KEPJKWLoEow-1">
          <mxGeometry x="425" y="310" width="40" height="20" as="geometry" />
        </mxCell>
        <mxCell id="Su9qCS7C3KEPJKWLoEow-27" value="customer" style="text;html=1;align=center;verticalAlign=middle;resizable=0;points=[];autosize=1;" vertex="1" parent="Su9qCS7C3KEPJKWLoEow-1">
          <mxGeometry x="510" y="377" width="60" height="20" as="geometry" />
        </mxCell>
      </root>
    </mxGraphModel>
  </diagram>
</mxfile>
